<?xml version="1.0" encoding="utf-8"?>
<!-- Generator: Adobe Illustrator 25.4.1, SVG Export Plug-In . SVG Version: 6.00 Build 0)  -->
<svg version="1.1" xmlns="http://www.w3.org/2000/svg" xmlns:xlink="http://www.w3.org/1999/xlink" x="0px" y="0px"
	 viewBox="0 0 40.53 38.4" style="enable-background:new 0 0 40.53 38.4;" xml:space="preserve">
<style type="text/css">
	.st0{fill:none;stroke:#FFFFFF;stroke-width:4.45;stroke-miterlimit:10;}
	.st1{fill:#88C062;stroke:#FFFFFF;stroke-width:3.57;stroke-miterlimit:10;}
	.st2{fill:#88C062;stroke:#FFFFFF;stroke-width:3.71;stroke-miterlimit:10;}
</style>
<g id="Слой_1">
	<g id="РЎР_xBB_РѕР_x2116__x5F_1-2">
		<path class="st0" d="M32.95,31.88H7.59c-0.51,0,1.08-0.46,1.08-1l3.62-22c0.44-1.64,1.21-3,2.7-3h10.53c1.49,0,2.24,1.31,2.7,3
			l3.62,22C31.83,31.48,33.42,31.88,32.95,31.88z"/>
		<path class="st1" d="M22.11,35.37h-3.72c-0.08,0-0.14,0-0.14-0.1v-2.63c0-0.06,0.06-0.1,0.14-0.1h3.72c0.08,0,0.14,0,0.14,0.1
			v2.63C22.25,35.27,22.19,35.37,22.11,35.37z"/>
		<path class="st2" d="M20.81,6.08h-1.12c-0.03,0-0.06-0.03-0.06-0.06V3.09c0-0.03,0.03-0.06,0.06-0.06h1.12
			c0.03,0,0.06,0.03,0.06,0.06v2.94C20.87,6.06,20.84,6.08,20.81,6.08z"/>
	</g>
</g>
<g id="Слой_2">
</g>
</svg>
