<?xml version="1.0" encoding="utf-8"?>
<!-- Generator: Adobe Illustrator 25.4.1, SVG Export Plug-In . SVG Version: 6.00 Build 0)  -->
<svg version="1.1" xmlns="http://www.w3.org/2000/svg" xmlns:xlink="http://www.w3.org/1999/xlink" x="0px" y="0px"
	 viewBox="0 0 40.53 38.4" style="enable-background:new 0 0 40.53 38.4;" xml:space="preserve">
<style type="text/css">
	.st0{fill:#FFFFFF;}
</style>
<g id="Слой_1">
	<g>
		<path class="st0" d="M33.85,5.26l2.18,2.18L11.78,31.69l-3.63,1.45l1.45-3.63L33.85,5.26 M33.85,2.26c-0.77,0-1.54,0.29-2.12,0.88
			L7.47,27.39c-0.29,0.29-0.51,0.63-0.66,1.01l-1.45,3.63c-0.44,1.11-0.18,2.39,0.66,3.23c0.57,0.57,1.34,0.88,2.12,0.88
			c0.37,0,0.75-0.07,1.11-0.21l3.63-1.45c0.38-0.15,0.72-0.38,1.01-0.66L38.16,9.56c1.17-1.17,1.17-3.07,0-4.24l-2.18-2.18
			C35.39,2.55,34.62,2.26,33.85,2.26L33.85,2.26z"/>
	</g>
</g>
<g id="Слой_2">
</g>
</svg>
