<?xml version="1.0" encoding="utf-8"?>
<!-- Generator: Adobe Illustrator 25.4.1, SVG Export Plug-In . SVG Version: 6.00 Build 0)  -->
<svg version="1.1" xmlns="http://www.w3.org/2000/svg" xmlns:xlink="http://www.w3.org/1999/xlink" x="0px" y="0px"
	 viewBox="0 0 40.53 38.4" style="enable-background:new 0 0 40.53 38.4;" xml:space="preserve">
<style type="text/css">
	.st0{fill:none;stroke:#FFFFFF;stroke-width:3;stroke-miterlimit:10;}
</style>
<g id="Слой_1">
	<g id="РЎР_xBB_РѕР_x2116__x5F_1-2">
		<path class="st0" d="M10.38,20.61H7.75c-0.05,0.01-0.09-0.03-0.1-0.08c0-0.01,0-0.01,0-0.02v-2.63c-0.01-0.05,0.03-0.09,0.08-0.1
			c0.01,0,0.01,0,0.02,0h2.63c0.05-0.01,0.09,0.03,0.1,0.08c0,0.01,0,0.01,0,0.02v2.63C10.48,20.57,10.44,20.61,10.38,20.61z"/>
		<path class="st0" d="M21.58,20.61h-2.62c-0.05,0.01-0.09-0.03-0.1-0.08c0-0.01,0-0.01,0-0.02v-2.63c-0.01-0.05,0.03-0.09,0.08-0.1
			c0.01,0,0.01,0,0.02,0h2.63c0.05-0.01,0.09,0.03,0.1,0.08c0,0.01,0,0.01,0,0.02v2.63c0,0.06-0.04,0.1-0.1,0.1
			C21.59,20.62,21.59,20.62,21.58,20.61z"/>
		<path class="st0" d="M32.78,20.61h-2.63c-0.05,0.01-0.09-0.03-0.1-0.08c0-0.01,0-0.01,0-0.02v-2.63c-0.01-0.05,0.03-0.09,0.08-0.1
			c0.01,0,0.01,0,0.02,0h2.63c0.05-0.01,0.09,0.03,0.1,0.08c0,0.01,0,0.01,0,0.02v2.63C32.88,20.57,32.84,20.61,32.78,20.61z"/>
	</g>
</g>
<g id="Слой_2">
</g>
</svg>
