<?xml version="1.0" encoding="utf-8"?>
<!-- Generator: Adobe Illustrator 25.4.1, SVG Export Plug-In . SVG Version: 6.00 Build 0)  -->
<svg version="1.1" xmlns="http://www.w3.org/2000/svg" xmlns:xlink="http://www.w3.org/1999/xlink" x="0px" y="0px"
	 viewBox="0 0 40.53 38.4" style="enable-background:new 0 0 40.53 38.4;" xml:space="preserve">
<style type="text/css">
	.st0{fill:none;stroke:#FFFFFF;stroke-width:3;stroke-miterlimit:10;}
	.st1{fill:none;stroke:#FFFFFF;stroke-width:4;stroke-miterlimit:10;}
</style>
<g id="Слой_1">
	<g id="РЎР_xBB_РѕР_x2116__x5F_1-2">
		<path class="st0" d="M10.98,20.84H8.35c-0.05,0.01-0.09-0.03-0.1-0.08c0-0.01,0-0.01,0-0.02v-2.61c-0.01-0.05,0.03-0.09,0.08-0.1
			c0.01,0,0.01,0,0.02,0h2.63c0.05-0.01,0.09,0.03,0.1,0.08c0,0.01,0,0.01,0,0.02v2.63C11.07,20.81,11.03,20.84,10.98,20.84z"/>
		<path class="st0" d="M34.38,20.84h-2.63c-0.05,0.01-0.09-0.03-0.1-0.08c0-0.01,0-0.01,0-0.02v-2.61c-0.01-0.05,0.03-0.09,0.08-0.1
			c0.01,0,0.01,0,0.02,0h2.63c0.05-0.01,0.09,0.03,0.1,0.08c0,0.01,0,0.01,0,0.02v2.63C34.47,20.81,34.43,20.84,34.38,20.84z"/>
		<path class="st0" d="M22.68,29.71v2.63c0.01,0.05-0.03,0.09-0.08,0.1c-0.01,0-0.01,0-0.02,0h-2.63c-0.05,0.01-0.09-0.03-0.1-0.08
			c0-0.01,0-0.01,0-0.02v-2.63c-0.01-0.05,0.03-0.09,0.08-0.1c0.01,0,0.01,0,0.02,0h2.63C22.63,29.61,22.68,29.65,22.68,29.71
			C22.68,29.71,22.68,29.71,22.68,29.71z"/>
		<path class="st0" d="M22.68,6.13v2.63c0.01,0.05-0.03,0.09-0.08,0.1c-0.01,0-0.01,0-0.02,0h-2.63c-0.05,0.01-0.09-0.03-0.1-0.08
			c0-0.01,0-0.01,0-0.02V6.13c-0.01-0.05,0.03-0.09,0.08-0.1c0.01,0,0.01,0,0.02,0h2.63c0.05-0.01,0.09,0.03,0.1,0.08
			C22.68,6.11,22.68,6.12,22.68,6.13z"/>
		<path class="st0" d="M14.59,27.97l-1.86,1.86c-0.04,0.04-0.1,0.04-0.14,0l-1.86-1.86c-0.04-0.04-0.04-0.1,0-0.14l1.86-1.86
			c0.04-0.04,0.1-0.04,0.14,0l1.86,1.86C14.63,27.87,14.63,27.93,14.59,27.97z"/>
		<path class="st0" d="M31.54,11.03l-1.86,1.86c-0.04,0.04-0.1,0.04-0.14,0l-1.86-1.86c-0.04-0.04-0.04-0.1,0-0.14l1.86-1.86
			c0.04-0.04,0.1-0.04,0.14,0l1.86,1.86C31.58,10.93,31.58,10.99,31.54,11.03z"/>
		<path class="st0" d="M12.64,12.89l-1.86-1.86c-0.04-0.04-0.04-0.1,0-0.14l1.86-1.86c0.04-0.04,0.1-0.04,0.14,0l1.86,1.86
			c0.04,0.04,0.04,0.1,0,0.14l-1.86,1.86C12.74,12.93,12.68,12.93,12.64,12.89z"/>
		<path class="st0" d="M29.59,29.83l-1.86-1.86c-0.04-0.04-0.04-0.1,0-0.14l1.86-1.86c0.04-0.04,0.1-0.04,0.14,0l1.86,1.86
			c0.04,0.04,0.04,0.1,0,0.14l-1.86,1.86C29.69,29.87,29.63,29.87,29.59,29.83z"/>
		<circle class="st1" cx="21.36" cy="19.43" r="8.75"/>
	</g>
</g>
<g id="Слой_2">
</g>
</svg>
